#extradata 0:       39, 0xf8aa0d44
#extradata 1:        2, 0x00b600a3
#tb 0: 1/1000
#media_type 0: video
#codec_id 0: h264
#dimensions 0: 426x240
#sar 0: 1/1
#tb 1: 1/1000
#media_type 1: audio
#codec_id 1: aac
#sample_rate 1: 22050
#channel_layout 1: 3
#channel_layout_name 1: stereo
0,          0,          0,       33,      135, 0x78b33078, S=1,       39, 0xf8aa0d44
1,          0,          0,       46,        9, 0x07bc01b8, S=1,        2, 0x00b600a3
0,         33,         33,       33,       92, 0x0d891dd0, F=0x0
1,         46,         46,       46,        9, 0x07bc01b8
0,         67,         67,       33,       14, 0x0f0f0310, F=0x0
1,         93,         93,       46,        9, 0x08bc01d8
0,        100,        100,       33,       14, 0x0f460317, F=0x0
0,        133,        133,       33,      117, 0xb0db33b7, F=0x0
1,        139,        139,       46,       89, 0x6d552ac1
0,        167,        167,       33,       14, 0x0eb202ee, F=0x0
1,        186,        186,       46,      155, 0x1a5a5037
0,        200,        200,       33,       14, 0x0eea02f6, F=0x0
1,        232,        232,       46,      281, 0xb40082f9
0,        234,        234,       33,      117, 0xf3673453, F=0x0
0,        267,        267,       33,       14, 0x0f790309, F=0x0
1,        279,        279,       46,      548, 0x9b031e86
0,        300,        300,       33,       14, 0x0fb10311, F=0x0
1,        325,        325,       46,      472, 0xee3def63
0,        334,        334,       33,      117, 0xff73346f, F=0x0
0,        367,        367,       33,       14, 0x10410325, F=0x0
1,        372,        372,       46,      489, 0xfa45f463
0,        400,        400,       33,       14, 0x1079032d, F=0x0
1,        418,        418,       46,      357, 0x7b01ae7d
0,        434,        434,       33,      207, 0x19755ca1, F=0x0
1,        464,        464,       46,      262, 0x19db8399
0,        467,        467,       33,       14, 0x110a0342, F=0x0
0,        501,        501,       33,       14, 0x1142034a, F=0x0
1,        511,        511,       46,      294, 0x047897e0
0,        534,        534,       33,      179, 0xedd45a40, F=0x0
1,        557,        557,       46,      204, 0x719961d0
0,        567,        567,       33,       14, 0x11d1035d, F=0x0
0,        601,        601,       33,       14, 0x120a0366, F=0x0
1,        604,        604,       46,      275, 0xca758590
0,        634,        634,       33,       32, 0xcee90e8b, F=0x0
1,        650,        650,       46,      309, 0x2e799850
0,        667,        667,       33,       30, 0xc2d20eeb, F=0x0
1,        697,        697,       46,      280, 0xdc2b8064
0,        701,        701,       33,       16, 0x23150504, F=0x0
0,        734,        734,       33,       33, 0xcccf0d2d, F=0x0
1,        743,        743,       46,      106, 0xd4cf30df
0,        767,        767,       33,       16, 0x2385050c, F=0x0
1,        789,        789,       46,      133, 0xcd964165
0,        801,        801,       33,       16, 0x23f50518, F=0x0
0,        834,        834,       33,       22, 0x4ff5086a, F=0x0
1,        836,        836,       46,      380, 0x4c6bbc27
0,        868,        868,       33,       14, 0x14aa03c2, F=0x0
1,        882,        882,       46,      378, 0x2b58b2d6
0,        901,        901,       33,       14, 0x14e103c9, F=0x0
1,        929,        929,       46,      108, 0x1998392e
0,        934,        934,       33,       55, 0xb6ef1b85, F=0x0
0,        968,        968,       33,       14, 0x153a03da, F=0x0
1,        975,        975,       46,      279, 0x67a488cb
0,       1001,       1001,       33,       14, 0x14bd035f, F=0x0
1,       1022,       1022,       46,      134, 0x228c4193
0,       1034,       1034,       33,       58, 0xe2911ae2, F=0x0
0,       1068,       1068,       33,       39, 0x1cff1129, F=0x0
1,       1068,       1068,       46,      162, 0x67ea49c7
0,       1101,       1101,       33,       48, 0xaa11138a, F=0x0
1,       1115,       1115,       46,       46, 0x40f91737
0,       1134,       1134,       33,      319, 0x7be7a0d8, F=0x0
1,       1161,       1161,       46,      150, 0x6be143fc
0,       1168,       1168,       33,      204, 0x23f56562, F=0x0
0,       1201,       1201,       33,      240, 0xd3d372e2, F=0x0
1,       1207,       1207,       46,      427, 0xc078d716
0,       1235,       1235,       33,      305, 0x34199655, F=0x0
1,       1254,       1254,       46,      616, 0x5f013db0
0,       1268,       1268,       33,      217, 0x31416760, F=0x0
1,       1300,       1300,       46,      736, 0x16978a5f
0,       1301,       1301,       33,      236, 0x150379fd, F=0x0
0,       1335,       1335,       33,      222, 0xf71472b6, F=0x0
1,       1347,       1347,       46,      708, 0x0d9f6e16
0,       1368,       1368,       33,     1295, 0x2c78860b
1,       1393,       1393,       46,      717, 0xa2737c00
0,       1401,       1401,       33,      653, 0x9aaf3eeb, F=0x0
0,       1435,       1435,       33,      335, 0x5c24a7f2, F=0x0
1,       1440,       1440,       46,      730, 0x0fc07b4f
0,       1468,       1468,       33,      765, 0xa7ee7d86, F=0x0
1,       1486,       1486,       46,      756, 0xeb2d987b
0,       1502,       1502,       33,      213, 0x67c6696e, F=0x0
1,       1533,       1533,       46,      664, 0x1c684d9f
0,       1535,       1535,       33,      464, 0x7043ec2c, F=0x0
0,       1568,       1568,       33,      561, 0x0080105c, F=0x0
1,       1579,       1579,       46,      751, 0xc1878274
0,       1602,       1602,       33,      876, 0x14e3b309, F=0x0
1,       1625,       1625,       46,      780, 0x72de91f8
0,       1635,       1635,       33,      473, 0x3af6e71a, F=0x0
0,       1668,       1668,       33,      272, 0x2f577eb7, F=0x0
1,       1672,       1672,       46,      404, 0x7cadbec3
0,       1702,       1702,       33,      281, 0xa8988539, F=0x0
1,       1718,       1718,       46,      326, 0x15afa178
0,       1735,       1735,       33,      315, 0xa3ed9945, F=0x0
1,       1765,       1765,       46,       77, 0x3c7021fb
0,       1768,       1768,       33,      653, 0x143d49a0, F=0x0
0,       1802,       1802,       33,      228, 0x81036d0c, F=0x0
1,       1811,       1811,       46,      132, 0xc1094091
0,       1835,       1835,       33,      265, 0x5c2481af, F=0x0
1,       1858,       1858,       46,      266, 0x16848764
0,       1869,       1869,       33,      362, 0xe6a4b15f, F=0x0
0,       1902,       1902,       33,      362, 0x7e75af89, F=0x0
1,       1904,       1904,       46,      297, 0x4ab19f82
0,       1935,       1935,       33,      297, 0xe07e8bd9, F=0x0
1,       1950,       1950,       46,        9, 0x13c503df
0,       1969,       1969,       33,      395, 0xa7f8ba2e, F=0x0
1,       1997,       1997,       46,        9, 0x0abc0218
0,       2002,       2002,       33,      149, 0xbc114287, F=0x0
0,       2035,       2035,       33,      141, 0x644342c1, F=0x0
1,       2043,       2043,       46,        9, 0x07bc01b8
0,       2069,       2069,       33,      317, 0x59bb9bbb, F=0x0
1,       2090,       2090,       46,        9, 0x07bc01b8
0,       2102,       2102,       33,      170, 0x97464bff, F=0x0
0,       2135,       2135,       33,      443, 0x4ff1e517, F=0x0
1,       2136,       2136,       46,        9, 0x07bc01b8
0,       2169,       2169,       33,      224, 0xc64e6a1b, F=0x0
1,       2183,       2183,       46,        9, 0x07bc01b8
0,       2202,       2202,       33,      472, 0xadd9e8af, F=0x0
1,       2229,       2229,       46,        9, 0x07bc01b8
0,       2236,       2236,       33,      188, 0xac6a570f, F=0x0
0,       2269,       2269,       33,      302, 0xaff49847, F=0x0
1,       2276,       2276,       46,        9, 0x07bc01b8
0,       2302,       2302,       33,      125, 0x01bf3c0c, F=0x0
1,       2322,       2322,       46,        9, 0x07bc01b8
0,       2336,       2336,       33,      810, 0x5c048b9a, F=0x0
1,       2368,       2368,       46,      304, 0x5c7a9945
0,       2369,       2369,       33,      158, 0x53d450f5, F=0x0
0,       2402,       2402,       33,      561, 0x65a7233a, F=0x0
1,       2415,       2415,       46,      683, 0xff1f50c3
0,       2436,       2436,       33,      383, 0xced8b27f, F=0x0
1,       2461,       2461,       46,      681, 0xa9d462e5
0,       2469,       2469,       33,      218, 0x10c86819, F=0x0
0,       2503,       2503,       33,      270, 0x81a886fb, F=0x0
1,       2508,       2508,       46,      663, 0xede65a46
0,       2536,       2536,       33,      182, 0xfa7b5cba, F=0x0
1,       2554,       2554,       46,      671, 0x7c3859ed
0,       2569,       2569,       33,     1063, 0x3498fd03
1,       2601,       2601,       46,      682, 0xdce263f2
0,       2603,       2603,       33,     3687, 0x7b022d91, F=0x0
0,       2636,       2636,       33,      280, 0x4de69154, F=0x0
1,       2647,       2647,       46,      698, 0x78076903
0,       2669,       2669,       33,      475, 0x426cdeaa, F=0x0
1,       2694,       2694,       46,      697, 0xfac9612a
0,       2703,       2703,       33,      488, 0x03dcf37e, F=0x0
0,       2736,       2736,       33,      532, 0xb2c70c7b, F=0x0
1,       2740,       2740,       46,      674, 0x3de15e5a
0,       2769,       2769,       33,      590, 0x674d2283, F=0x0
1,       2786,       2786,       46,      651, 0xa4c75606
0,       2803,       2803,       33,      683, 0x38c54334, F=0x0
1,       2833,       2833,       46,      672, 0xc8c34e54
0,       2836,       2836,       33,      836, 0xabb49ab2, F=0x0
0,       2870,       2870,       33,      676, 0x03124fc9, F=0x0
1,       2879,       2879,       46,      665, 0x928f5897
0,       2903,       2903,       33,      731, 0x98aa5ca4, F=0x0
1,       2926,       2926,       46,      734, 0xf0e9626f
0,       2936,       2936,       33,      839, 0xd4a69b32, F=0x0
0,       2970,       2970,       33,      787, 0x86867c4f, F=0x0
1,       2972,       2972,       46,      732, 0x6561709d
0,       3003,       3003,       33,     1039, 0x071b0fa8, F=0x0
1,       3019,       3019,       46,      742, 0x700d7d86
0,       3036,       3036,       33,      851, 0x600fafab, F=0x0
1,       3065,       3065,       46,      748, 0xfd026ad1
0,       3070,       3070,       33,      928, 0x8ea9cb74, F=0x0
0,       3103,       3103,       33,      840, 0x8b41a170, F=0x0
1,       3111,       3111,       46,      671, 0xbfa75606
0,       3136,       3136,       33,      889, 0x2dd8ae89, F=0x0
1,       3158,       3158,       46,      645, 0x2b4c50bd
0,       3170,       3170,       33,      789, 0x27af87cb, F=0x0
0,       3203,       3203,       33,     1037, 0x6e71063c, F=0x0
1,       3204,       3204,       46,      724, 0xaaa77c18
0,       3237,       3237,       33,     1201, 0xbfbc5455, F=0x0
1,       3251,       3251,       46,      757, 0xce638153
0,       3270,       3270,       33,      934, 0x7be8d884, F=0x0
1,       3297,       3297,       46,      710, 0x427b6cf9
0,       3303,       3303,       33,     1028, 0xfa9af5d0, F=0x0
0,       3337,       3337,       33,     1007, 0xb40b0013, F=0x0
1,       3344,       3344,       46,      705, 0xdb9d5e6b
0,       3370,       3370,       33,      944, 0xdba1d534, F=0x0
1,       3390,       3390,       46,      693, 0x84b562bc
0,       3403,       3403,       33,     1121, 0x18f61f5a, F=0x0
0,       3437,       3437,       33,     1321, 0x28cb9aa8, F=0x0
1,       3437,       3437,       46,      683, 0x0ba85781
0,       3470,       3470,       33,     1229, 0x2d6f62ef, F=0x0
1,       3483,       3483,       46,      668, 0x96454b35
0,       3504,       3504,       33,     1166, 0xc3b141b9, F=0x0
1,       3529,       3529,       46,      624, 0x89672d22
0,       3537,       3537,       33,     1055, 0xc53e0e48, F=0x0
0,       3570,       3570,       33,      947, 0x4faecfa6, F=0x0
1,       3576,       3576,       46,      570, 0xe1da1fc2
0,       3604,       3604,       33,     1117, 0xb8fa31d9, F=0x0
1,       3622,       3622,       46,      579, 0xd091239c
0,       3637,       3637,       33,     1397, 0xb228be1a, F=0x0
1,       3669,       3669,       46,      558, 0xdb951ae5
0,       3670,       3670,       33,     1097, 0x955227ea, F=0x0
0,       3704,       3704,       33,     1207, 0x5ba850c0, F=0x0
1,       3715,       3715,       46,      510, 0x33d5069a
0,       3737,       3737,       33,     1109, 0x577d2fcd, F=0x0
1,       3762,       3762,       46,      518, 0x21e4fc96
0,       3770,       3770,       33,      994, 0xf3daf299, F=0x0
0,       3804,       3804,       33,     1144, 0x3d574b78, F=0x0
1,       3808,       3808,       46,      481, 0x7d7deda0
0,       3837,       3837,       33,     1409, 0xf148c4bb, F=0x0
1,       3855,       3855,       46,      443, 0xc9bbe042
0,       3871,       3871,       33,     1205, 0xaada4f06, F=0x0
1,       3901,       3901,       46,      413, 0xb428ca8a
0,       3904,       3904,       33,     1159, 0x3bf83010, F=0x0
0,       3937,       3937,       33,     1207, 0x2a6457c1, F=0x0
1,       3947,       3947,       46,      398, 0x7369c402
0,       3971,       3971,       33,     1084, 0x77271e1d, F=0x0
1,       3994,       3994,       46,      377, 0x8e1db9a9
0,       4004,       4004,       33,     1539, 0xb1a9fade, F=0x0
0,       4037,       4037,       33,     1409, 0xdcf7b97d, F=0x0
1,       4040,       4040,       46,      364, 0xa399a9c2
0,       4071,       4071,       33,     1275, 0x993b7ef9, F=0x0
1,       4087,       4087,       46,      374, 0x8a30ad84
0,       4104,       4104,       33,     1317, 0xf2f29754, F=0x0
1,       4133,       4133,       46,      355, 0x7ad6aaa1
0,       4137,       4137,       33,     1146, 0xae633238, F=0x0
0,       4171,       4171,       33,     1166, 0x89be313d, F=0x0
1,       4180,       4180,       46,      341, 0x3e549a7b
0,       4204,       4204,       33,     1272, 0x75e07674, F=0x0
1,       4226,       4226,       46,      364, 0xb134a056
0,       4238,       4238,       33,     1550, 0x6630039d, F=0x0
0,       4271,       4271,       33,     1353, 0x51f6ad16, F=0x0
1,       4272,       4272,       46,      350, 0x1f6a9ee2
0,       4304,       4304,       33,     1251, 0x05046828, F=0x0
1,       4319,       4319,       46,      356, 0x2aa5ad2c
0,       4338,       4338,       33,     1339, 0x44e78a57, F=0x0
1,       4365,       4365,       46,      365, 0x26e7a5eb
0,       4371,       4371,       33,     1216, 0x2fb55067, F=0x0
0,       4404,       4404,       33,     1222, 0xd051743c, F=0x0
1,       4412,       4412,       46,      352, 0x89ffa564
0,       4438,       4438,       33,     1665, 0x5a6a41dd, F=0x0
1,       4458,       4458,       46,      374, 0x8333b502
0,       4471,       4471,       33,     1372, 0x3abca4f1, F=0x0
0,       4505,       4505,       33,     1611, 0x99ad11fe, F=0x0
1,       4505,       4505,       46,      375, 0x22e4b95a
0,       4538,       4538,       33,     7010, 0x7a699d02
1,       4551,       4551,       46,      375, 0xfb95adce
0,       4571,       4571,       33,      549, 0x0ae5102e, F=0x0
1,       4598,       4598,       46,      376, 0xa910b02a
0,       4605,       4605,       33,     1021, 0xe53aea67, F=0x0
0,       4638,       4638,       33,     1281, 0x53808ad5, F=0x0
1,       4644,       4644,       46,      372, 0x5d84a2e6
0,       4671,       4671,       33,     1267, 0x2a3c6a6d, F=0x0
1,       4690,       4690,       46,      371, 0x6849a7b1
0,       4705,       4705,       33,     1140, 0xe2a436ad, F=0x0
1,       4737,       4737,       46,      365, 0xb0eaa876
0,       4738,       4738,       33,     1289, 0xa1227538, F=0x0
0,       4771,       4771,       33,     1127, 0xe2ad2de9, F=0x0
1,       4783,       4783,       46,      385, 0xbea3ba29
0,       4805,       4805,       33,     1196, 0xa16f445e, F=0x0
1,       4830,       4830,       46,      362, 0xd20da339
0,       4838,       4838,       33,     1520, 0x4a72f136, F=0x0
0,       4872,       4872,       33,     1370, 0xdd6e9bda, F=0x0
1,       4876,       4876,       46,      370, 0xf774b39b
0,       4905,       4905,       33,     1232, 0x928f6640, F=0x0
1,       4923,       4923,       46,      369, 0x7381aca3
0,       4938,       4938,       33,     1159, 0x9de43e90, F=0x0
1,       4969,       4969,       46,      341, 0xbfd5ac4c
0,       4972,       4972,       33,     1183, 0xc36251d9, F=0x0
0,       5005,       5005,       33,     1469, 0xb2b1f147, F=0x0
1,       5016,       5016,       46,      351, 0xd044a810
0,       5038,       5038,       33,     1468, 0xb985dd18, F=0x0
1,       5062,       5062,       46,      365, 0xdc80af91
0,       5072,       5072,       33,     1355, 0xf58c9413, F=0x0
0,       5105,       5105,       33,     1303, 0x14157d32, F=0x0
1,       5108,       5108,       46,      358, 0xd6c8b0b0
0,       5138,       5138,       33,     1316, 0x3fc89532, F=0x0
1,       5155,       5155,       46,      373, 0xafa1ad7e
0,       5172,       5172,       33,     1196, 0x869a529d, F=0x0
1,       5201,       5201,       46,      367, 0x7361ad07
0,       5205,       5205,       33,     1283, 0xd7717841, F=0x0
0,       5239,       5239,       33,     1489, 0x13abed4a, F=0x0
1,       5248,       5248,       46,      364, 0x2103ac58
0,       5272,       5272,       33,     1507, 0xdbaee51a, F=0x0
1,       5294,       5294,       46,      346, 0x01d59dbe
0,       5305,       5305,       33,     1237, 0x81b8669f, F=0x0
0,       5339,       5339,       33,     1217, 0x3f3f6661, F=0x0
1,       5341,       5341,       46,      362, 0xe11fad7f
0,       5372,       5372,       33,     1224, 0xe0e8653c, F=0x0
1,       5387,       5387,       46,      360, 0x63b5a7a5
0,       5405,       5405,       33,     1554, 0x88bf1cbc, F=0x0
1,       5433,       5433,       46,      356, 0xce49acce
0,       5439,       5439,       33,     1465, 0xf42ddd75, F=0x0
0,       5472,       5472,       33,     1862, 0x423c930e, F=0x0
1,       5480,       5480,       46,      364, 0x5e1eaebb
0,       5506,       5506,       33,     1604, 0xb4e22b5d, F=0x0
1,       5526,       5526,       46,      365, 0x3f92aad4
0,       5539,       5539,       33,     1541, 0x1e52dd7b, F=0x0
0,       5572,       5572,       33,     1534, 0x96adf8bb, F=0x0
1,       5573,       5573,       46,      357, 0x8492abda
0,       5606,       5606,       33,     1336, 0x0aaa91dd, F=0x0
1,       5619,       5619,       46,      367, 0x5524aafb
0,       5639,       5639,       33,     1761, 0xde4b6b31, F=0x0
1,       5666,       5666,       46,      361, 0xfcc4b013
0,       5672,       5672,       33,     1722, 0xa29a5aaf, F=0x0
0,       5706,       5706,       33,     1442, 0xea0ce0a5, F=0x0
1,       5712,       5712,       46,      367, 0x07d7a469
0,       5739,       5739,       33,     1313, 0x28f889e1, F=0x0
1,       5759,       5759,       46,      375, 0xd7d1b2cc
0,       5772,       5772,       33,     1436, 0x5464d32b, F=0x0
1,       5805,       5805,       46,      357, 0x3e05a67b
0,       5806,       5806,       33,     1689, 0x812d4d33, F=0x0
0,       5839,       5839,       33,     1472, 0x63f8cee6, F=0x0
1,       5851,       5851,       46,      379, 0x968bad9d
0,       5873,       5873,       33,     1730, 0xae13704c, F=0x0
1,       5898,       5898,       46,      361, 0xa40aac26
0,       5906,       5906,       33,     1555, 0xfe7011be, F=0x0
0,       5939,       5939,       33,     1486, 0x6dccd60b, F=0x0
1,       5944,       5944,       46,      350, 0x4261a2a7
0,       5973,       5973,       33,     1311, 0x4a64822b, F=0x0
1,       5991,       5991,       46,      339, 0x030da15f
0,       6006,       6006,       33,     1700, 0x42583def, F=0x0
1,       6037,       6037,       46,      336, 0x2bb699db
0,       6039,       6039,       33,     1647, 0x97a53e7d, F=0x0
0,       6073,       6073,       33,     1663, 0x72363852, F=0x0
1,       6084,       6084,       46,      331, 0xc3b19edc
0,       6106,       6106,       33,     1512, 0xda11e80a, F=0x0
1,       6130,       6130,       46,      335, 0xda6e9891
0,       6139,       6139,       33,     1370, 0x2618a927, F=0x0
0,       6173,       6173,       33,     1440, 0xadd7baf0, F=0x0
1,       6177,       6177,       46,      323, 0xdcd9943f
0,       6206,       6206,       33,     1574, 0xa2e305e8, F=0x0
1,       6223,       6223,       46,      333, 0x34f69630
0,       6240,       6240,       33,     1328, 0x53baa035, F=0x0
1,       6269,       6269,       46,      335, 0x2ed79dab
0,       6273,       6273,       33,     1802, 0xc91782aa, F=0x0
0,       6306,       6306,       33,     1619, 0x443c3ae6, F=0x0
1,       6316,       6316,       46,      334, 0x2b0e9704
0,       6340,       6340,       33,     1471, 0xe3a8defc, F=0x0
1,       6362,       6362,       46,      342, 0xf47f9c97
0,       6373,       6373,       33,     1226, 0xfd2f5b3b, F=0x0
0,       6406,       6406,       33,     1485, 0xed8be011, F=0x0
1,       6409,       6409,       46,      358, 0xd6a6aad9
0,       6440,       6440,       33,     1786, 0xf98572ee, F=0x0
1,       6455,       6455,       46,      360, 0xbf5ea460
0,       6473,       6473,       33,     1345, 0xc7d39a6a, F=0x0
1,       6502,       6502,       46,      357, 0xe5bba75c
0,       6507,       6507,       33,     8275, 0x7a7115f7
0,       6540,       6540,       33,      698, 0x45955de0, F=0x0
1,       6548,       6548,       46,      336, 0x9da89baf
0,       6573,       6573,       33,     1298, 0x382a8e39, F=0x0
1,       6594,       6594,       46,      343, 0x0f749ed3
0,       6607,       6607,       33,     1454, 0xb6e4c8c1, F=0x0
0,       6640,       6640,       33,     1352, 0x39738c55, F=0x0
1,       6641,       6641,       46,      324, 0x63989376
0,       6673,       6673,       33,     1609, 0xaf601cb7, F=0x0
1,       6687,       6687,       46,      322, 0x5c429514
0,       6707,       6707,       33,     1476, 0xc020de0c, F=0x0
1,       6734,       6734,       46,      328, 0xad669039
0,       6740,       6740,       33,     1391, 0xd45baf0c, F=0x0
0,       6773,       6773,       33,     1203, 0x22855ed0, F=0x0
1,       6780,       6780,       46,      332, 0x21fb9787
0,       6807,       6807,       33,     1489, 0x1ce4e3d6, F=0x0
1,       6827,       6827,       46,      343, 0x663c9d7a
0,       6840,       6840,       33,     1655, 0x0f5c30f1, F=0x0
1,       6873,       6873,       46,      343, 0xea86a902
0,       6874,       6874,       33,     1363, 0x97b7ad8e, F=0x0
0,       6907,       6907,       33,     1492, 0x177eed5d, F=0x0
1,       6920,       6920,       46,      327, 0xc3659486
0,       6940,       6940,       33,     1397, 0xff57bf4b, F=0x0
1,       6966,       6966,       46,      326, 0x3245a088
0,       6974,       6974,       33,     1251, 0x1bcd7221, F=0x0
0,       7007,       7007,       33,     1586, 0xe8d102ac, F=0x0
1,       7012,       7012,       46,      324, 0x3f9a8f1d
0,       7040,       7040,       33,     1333, 0x2bf0a1da, F=0x0
1,       7059,       7059,       46,      312, 0xbc969286
0,       7074,       7074,       33,     2723, 0x576f3ace, F=0x0
1,       7105,       7105,       46,      308, 0xbc0a8c96
0,       7107,       7107,       33,      632, 0xe9253efd, F=0x0
0,       7140,       7140,       33,      444, 0x701ed924, F=0x0
1,       7152,       7152,       46,      308, 0xfda38345
0,       7174,       7174,       33,     1013, 0xd27f0123, F=0x0
1,       7198,       7198,       46,      318, 0x469893ad
0,       7207,       7207,       33,     1357, 0x46979205, F=0x0
0,       7241,       7241,       33,     1586, 0x3e9824f8, F=0x0
1,       7245,       7245,       46,      331, 0x2d629ee2
0,       7274,       7274,       33,     2514, 0x4329eb3d, F=0x0
1,       7291,       7291,       46,      329, 0x6361948e
0,       7307,       7307,       33,      450, 0xa710e3d3, F=0x0
1,       7338,       7338,       46,      333, 0x6e169a21
0,       7341,       7341,       33,      423, 0xb239c6cf, F=0x0
0,       7374,       7374,       33,     1161, 0x2e813244, F=0x0
1,       7384,       7384,       46,      314, 0x37e78615
0,       7407,       7407,       33,     1366, 0xc85eab74, F=0x0
1,       7430,       7430,       46,      304, 0x580d9236
0,       7441,       7441,       33,     1325, 0x53938a95, F=0x0
0,       7474,       7474,       33,     2687, 0x40383547, F=0x0
1,       7477,       7477,       46,      299, 0x3e41899a
0,       7508,       7508,       33,      678, 0x0c56575d, F=0x0
1,       7523,       7523,       46,      311, 0xf62f881b
0,       7541,       7541,       33,      491, 0xdafef05e, F=0x0
1,       7570,       7570,       46,      323, 0x68a09353
0,       7574,       7574,       33,     1056, 0x3e5616fc, F=0x0
0,       7608,       7608,       33,     1549, 0x5dcb04c7, F=0x0
1,       7616,       7616,       46,      317, 0xf9f88de8
0,       7641,       7641,       33,     2502, 0x1c21dd6b, F=0x0
1,       7663,       7663,       46,      322, 0x204a970f
0,       7674,       7674,       33,      539, 0xef1d0e8d, F=0x0
0,       7708,       7708,       33,      594, 0x15f324d6, F=0x0
1,       7709,       7709,       46,      329, 0x1c4c9ee8
0,       7741,       7741,       33,     1254, 0xe49078cb, F=0x0
1,       7755,       7755,       46,      342, 0xc825aa35
0,       7774,       7774,       33,     1341, 0xfb789386, F=0x0
1,       7802,       7802,       46,      331, 0x6d1c9c33
0,       7808,       7808,       33,     1358, 0x5a7194ad, F=0x0
0,       7841,       7841,       33,     2336, 0x538f8a16, F=0x0
1,       7848,       7848,       46,      343, 0x577ca504
0,       7875,       7875,       33,      339, 0x9935a5f9, F=0x0
1,       7895,       7895,       46,      327, 0xafb79bfe
0,       7908,       7908,       33,     2159, 0x20654dbc, F=0x0
0,       7941,       7941,       33,      390, 0xe6c8bd90, F=0x0
1,       7941,       7941,       46,      317, 0x773e8778
0,       7975,       7975,       33,      479, 0xefbaf020, F=0x0
1,       7988,       7988,       46,      313, 0x357d93ad
0,       8008,       8008,       33,     2157, 0x5cc5398b, F=0x0
1,       8034,       8034,       46,      312, 0xaa978945
0,       8041,       8041,       33,      429, 0x5dbecb52, F=0x0
0,       8075,       8075,       33,     1953, 0xdb55d429, F=0x0
1,       8081,       8081,       46,      318, 0x7a0d8c19
0,       8108,       8108,       33,      379, 0x1d62ba4e, F=0x0
1,       8127,       8127,       46,      325, 0x577a9868
0,       8141,       8141,       33,     1817, 0x44fa8996, F=0x0
1,       8173,       8173,       46,      317, 0x8ef994a7
0,       8175,       8175,       33,      372, 0x023db80e, F=0x0
0,       8208,       8208,       33,     1664, 0xd2d14b3f, F=0x0
1,       8220,       8220,       46,      308, 0x0fbd8e91
0,       8242,       8242,       33,      340, 0xc537aa42, F=0x0
1,       8266,       8266,       46,      309, 0x31c28f1d
0,       8275,       8275,       33,     1955, 0x76f8cdb3, F=0x0
0,       8308,       8308,       33,      485, 0x5b05f1d6, F=0x0
1,       8313,       8313,       46,      315, 0xc27f8cbb
0,       8342,       8342,       33,     1705, 0x18385a59, F=0x0
1,       8359,       8359,       46,      340, 0x21b3a33f
0,       8375,       8375,       33,      411, 0x70d7cae5, F=0x0
1,       8406,       8406,       46,      326, 0xc4fd90f3
0,       8408,       8408,       33,     1818, 0x9d6381eb, F=0x0
0,       8442,       8442,       33,      304, 0x7825921f, F=0x0
1,       8452,       8452,       46,      333, 0xe874961c
0,       8475,       8475,       33,     6302, 0x016c66ef
1,       8499,       8499,       46,      340, 0x342c9ce8
0,       8509,       8509,       33,     1498, 0x42b4ef91, F=0x0
0,       8542,       8542,       33,      434, 0xa285db46, F=0x0
1,       8545,       8545,       46,      338, 0x204b9c1d
0,       8575,       8575,       33,     1643, 0xe0d322b1, F=0x0
1,       8591,       8591,       46,      357, 0xa4b09fab
0,       8609,       8609,       33,      213, 0xfc1b64b4, F=0x0
1,       8638,       8638,       46,      340, 0x7bfa9f7d
0,       8642,       8642,       33,     1820, 0x612577a5, F=0x0
0,       8675,       8675,       33,      264, 0x1b3b7d63, F=0x0
1,       8684,       8684,       46,      335, 0x965e9ca0
0,       8709,       8709,       33,     1461, 0x6392d1d0, F=0x0
1,       8731,       8731,       46,      322, 0x278791b7
0,       8742,       8742,       33,      239, 0x34206e81, F=0x0
0,       8775,       8775,       33,     1581, 0xa53714ca, F=0x0
1,       8777,       8777,       46,      318, 0xac96910c
0,       8809,       8809,       33,      212, 0x356e6502, F=0x0
1,       8824,       8824,       46,      326, 0xdb2897c6
0,       8842,       8842,       33,     1351, 0x42f5bb96, F=0x0
1,       8870,       8870,       46,      341, 0x6e00a7ba
0,       8876,       8876,       33,      448, 0x82afd887, F=0x0
0,       8909,       8909,       33,     1403, 0x461cc0fa, F=0x0
1,       8916,       8916,       46,      319, 0xfe8d8f11
0,       8942,       8942,       33,      491, 0xcc36f0ac, F=0x0
1,       8963,       8963,       46,      303, 0xa81c8418
0,       8976,       8976,       33,     1606, 0xe6572381, F=0x0
0,       9009,       9009,       33,      304, 0x17d49e7b, F=0x0
1,       9009,       9009,       46,      291, 0x931a88a8
0,       9042,       9042,       33,     1537, 0x2506027c, F=0x0
1,       9056,       9056,       46,      307, 0xd06c8de9
0,       9076,       9076,       33,      342, 0x27c1a7d7, F=0x0
1,       9102,       9102,       46,      335, 0xc4449e94
0,       9109,       9109,       33,     1405, 0x2fbbcb89, F=0x0
0,       9142,       9142,       33,      351, 0x5529b047, F=0x0
1,       9149,       9149,       46,      348, 0xb347a000
0,       9176,       9176,       33,     1451, 0x9455d96b, F=0x0
1,       9195,       9195,       46,      346, 0xb36ea5a2
0,       9209,       9209,       33,      490, 0xda00f1ab, F=0x0
1,       9242,       9242,       46,      333, 0xfec69e56
0,       9243,       9243,       33,     1524, 0x7752edff, F=0x0
0,       9276,       9276,       33,      556, 0xea4f0e24, F=0x0
1,       9288,       9288,       46,      338, 0x24a694c0
0,       9309,       9309,       33,     1414, 0x780ecb26, F=0x0
1,       9334,       9334,       46,      328, 0xbf0498ea
0,       9343,       9343,       33,      808, 0xe60b85d4, F=0x0
0,       9376,       9376,       33,      871, 0xc49ab01a, F=0x0
1,       9381,       9381,       46,      334, 0x725b97da
0,       9409,       9409,       33,      562, 0x5bf11537, F=0x0
1,       9427,       9427,       46,      364, 0x44089f50
0,       9443,       9443,       33,      711, 0x41db5a9a, F=0x0
1,       9474,       9474,       46,      350, 0xedeb9e1d
0,       9476,       9476,       33,     1209, 0x977c4e31, F=0x0
0,       9510,       9510,       33,      483, 0xd883e689, F=0x0
1,       9520,       9520,       46,      348, 0x5dd39c4a
0,       9543,       9543,       33,      422, 0xf7e3d366, F=0x0
1,       9567,       9567,       46,      354, 0x202d9eff
0,       9576,       9576,       33,      533, 0x7da70555, F=0x0
0,       9610,       9610,       33,      490, 0xb209e261, F=0x0
1,       9613,       9613,       46,      358, 0xdd3ea998
0,       9643,       9643,       33,      972, 0x0cf2e4b0, F=0x0
1,       9660,       9660,       46,      361, 0xa7b6a4c6
0,       9676,       9676,       33,      370, 0x75bfafd5, F=0x0
1,       9706,       9706,       46,      354, 0xa20aa059
0,       9710,       9710,       33,      348, 0xf094a48a, F=0x0
0,       9743,       9743,       33,      449, 0xa08de29e, F=0x0
1,       9752,       9752,       46,      369, 0x81c9af74
0,       9776,       9776,       33,      447, 0x9392d7bf, F=0x0
1,       9799,       9799,       46,      359, 0xbbd4b06e
0,       9810,       9810,       33,      414, 0xcc62c97e, F=0x0
0,       9843,       9843,       33,      467, 0x37a5e9e0, F=0x0
1,       9845,       9845,       46,      348, 0x1f2ba0bb
0,       9877,       9877,       33,      890, 0x107fb1a3, F=0x0
1,       9892,       9892,       46,      346, 0x0ad5a08c
0,       9910,       9910,       33,      387, 0x876ec0ab, F=0x0
1,       9938,       9938,       46,      350, 0x9802a830
0,       9943,       9943,       33,      351, 0x2ed7a355, F=0x0
0,       9977,       9977,       33,      720, 0x153d6916, F=0x0
1,       9985,       9985,       46,      359, 0xce55a942
0,      10010,      10010,       33,      855, 0xc2f4a51e, F=0x0
1,      10031,      10031,       46,      355, 0xa31ca014
0,      10043,      10043,       33,      742, 0xc13b6868, F=0x0
0,      10077,      10077,       33,      835, 0x5c80a1fd, F=0x0
1,      10077,      10077,       46,      320, 0xb71b8f6a
0,      10110,      10110,       33,     1610, 0xba612dab, F=0x0
1,      10124,      10124,       46,      348, 0x221b9e6d
0,      10143,      10143,       33,      637, 0xc25a3725, F=0x0
1,      10170,      10170,       46,      370, 0xe989a4ed
0,      10177,      10177,       33,      614, 0xb7922aa2, F=0x0
0,      10210,      10210,       33,     1143, 0x576a3cac, F=0x0
1,      10217,      10217,       46,      353, 0x3e11a44b
0,      10244,      10244,       33,     1262, 0xa7f475fb, F=0x0
1,      10263,      10263,       46,      367, 0x9644abd4
0,      10277,      10277,       33,     1618, 0x36443ddd, F=0x0
0,      10310,      10310,       33,     2345, 0x25ad71dc, F=0x0
1,      10310,      10310,       46,      350, 0xa088a836
0,      10344,      10344,       33,     1029, 0x597303d7, F=0x0
1,      10356,      10356,       46,      353, 0x7d9fa7d0
0,      10377,      10377,       33,      932, 0x064bcca7, F=0x0
1,      10403,      10403,       46,      336, 0x397398a2
0,      10410,      10410,       33,     1688, 0x5ed257c1, F=0x0
0,      10444,      10444,       33,     4159, 0x897c3370
1,      10449,      10449,       46,      334, 0xa321a038
0,      10477,      10477,       33,     2039, 0x930cfb12, F=0x0
1,      10495,      10495,       46,      358, 0x61e2a2c5
0,      10511,      10511,       33,      614, 0x1edc250b, F=0x0
1,      10542,      10542,       46,      344, 0xa7189dd0
0,      10544,      10544,       33,     1749, 0x79655b63, F=0x0
0,      10577,      10577,       33,     2609, 0x834f110a, F=0x0
1,      10588,      10588,       46,      344, 0x85739a8f
0,      10611,      10611,       33,      689, 0x47c85a40, F=0x0
1,      10635,      10635,       46,      356, 0x54b4a63b
0,      10644,      10644,       33,     2259, 0xfbef6b65, F=0x0
0,      10677,      10677,       33,     2494, 0x3f5fc8d0, F=0x0
1,      10681,      10681,       46,      354, 0x1528aa5c
0,      10711,      10711,       33,     2457, 0xc427c17e, F=0x0
1,      10728,      10728,       46,      330, 0xe44f959b
0,      10744,      10744,       33,     2476, 0x8bbbd064, F=0x0
1,      10774,      10774,       46,      328, 0x0b70968c
0,      10777,      10777,       33,     2560, 0x0b04f7d7, F=0x0
0,      10811,      10811,       33,     2679, 0x02d74002, F=0x0
1,      10820,      10820,       46,      351, 0xcef29fe7
0,      10844,      10844,       33,     2795, 0x6a166090, F=0x0
1,      10867,      10867,       46,      364, 0xe542aed9
0,      10878,      10878,       33,     2927, 0xfdb899de, F=0x0
0,      10911,      10911,       33,     2437, 0x5ac9ba9b, F=0x0
1,      10913,      10913,       46,      365, 0x3697a967
0,      10944,      10944,       33,     2663, 0xa4412f2e, F=0x0
1,      10960,      10960,       46,      341, 0xe1a59f5c
0,      10978,      10978,       33,     2688, 0x48db425f, F=0x0
1,      11006,      11006,       46,      330, 0x96fb8da1
0,      11011,      11011,       33,     2727, 0x12db4729, F=0x0
0,      11044,      11044,       33,     2747, 0xc3945324, F=0x0
1,      11053,      11053,       46,      358, 0x89eca01e
0,      11078,      11078,       33,     3602, 0x32bd0c05, F=0x0
1,      11099,      11099,       46,      367, 0x77f2b3d3
0,      11111,      11111,       33,     1334, 0x1cdfa159, F=0x0
0,      11144,      11144,       33,     2562, 0x4985e43f, F=0x0
1,      11146,      11146,       46,      353, 0x73499f01
0,      11178,      11178,       33,     2917, 0x7b999fc2, F=0x0
1,      11192,      11192,       46,      336, 0xb8b9a2a0
0,      11211,      11211,       33,     2788, 0x94a75a97, F=0x0
1,      11238,      11238,       46,      329, 0xb80a8e3f
0,      11245,      11245,       33,     2876, 0x4da3a1e2, F=0x0
0,      11278,      11278,       33,     2782, 0x0018739c, F=0x0
1,      11285,      11285,       46,      323, 0x36929c3b
0,      11311,      11311,       33,     2393, 0xd5d6b66d, F=0x0
1,      11331,      11331,       46,      328, 0xc22b9604
0,      11345,      11345,       33,     2773, 0x969452e3, F=0x0
0,      11378,      11378,       33,     2972, 0xcf93d2ca, F=0x0
1,      11378,      11378,       46,      345, 0x76eda9c7
0,      11411,      11411,       33,     3480, 0x7000d659, F=0x0
1,      11424,      11424,       46,      345, 0xd34da6bb
0,      11445,      11445,       33,     1078, 0xd89b1b88, F=0x0
1,      11471,      11471,       46,      349, 0xa7a1a1a9
0,      11478,      11478,       33,     3385, 0xb57695e3, F=0x0
0,      11512,      11512,       33,     1408, 0xe155b5f3, F=0x0
1,      11517,      11517,       46,      340, 0x5ae5942f
0,      11545,      11545,       33,     2543, 0x77d5eee5, F=0x0
1,      11564,      11564,       46,      352, 0xf105a26a
0,      11578,      11578,       33,     3609, 0x3a02f82d, F=0x0
1,      11610,      11610,       46,      345, 0xf6a29dda
0,      11612,      11612,       33,     1078, 0x501d1c72, F=0x0
0,      11645,      11645,       33,     2600, 0xdf370d24, F=0x0
1,      11656,      11656,       46,      346, 0x8899a188
0,      11678,      11678,       33,     1190, 0xdc1e4c99, F=0x0
